<mxfile host="Electron" agent="Mozilla/5.0 (Windows NT 10.0; Win64; x64) AppleWebKit/537.36 (KHTML, like Gecko) draw.io/24.7.17 Chrome/128.0.6613.36 Electron/32.0.1 Safari/537.36" version="24.7.17">
  <diagram name="第 1 页" id="vi4oOFu7XUGohT_ume2S">
    <mxGraphModel dx="1098" dy="820" grid="0" gridSize="10" guides="1" tooltips="1" connect="1" arrows="1" fold="1" page="1" pageScale="1" pageWidth="827" pageHeight="1169" math="0" shadow="0">
      <root>
        <mxCell id="0" />
        <mxCell id="1" parent="0" />
        <mxCell id="vwVq9e7CNpZXktn20YOn-11" style="edgeStyle=orthogonalEdgeStyle;rounded=0;orthogonalLoop=1;jettySize=auto;html=1;exitX=1;exitY=0.5;exitDx=0;exitDy=0;entryX=0;entryY=0.5;entryDx=0;entryDy=0;" parent="1" source="vwVq9e7CNpZXktn20YOn-1" target="qdqMr-0LiX04oF3RgG00-1" edge="1">
          <mxGeometry relative="1" as="geometry" />
        </mxCell>
        <mxCell id="vwVq9e7CNpZXktn20YOn-1" value="第三方对接" style="rounded=1;whiteSpace=wrap;html=1;" parent="1" vertex="1">
          <mxGeometry x="291" y="393" width="120" height="60" as="geometry" />
        </mxCell>
        <mxCell id="vwVq9e7CNpZXktn20YOn-2" value="上行链路" style="rounded=1;whiteSpace=wrap;html=1;" parent="1" vertex="1">
          <mxGeometry x="291" y="473" width="120" height="60" as="geometry" />
        </mxCell>
        <mxCell id="vwVq9e7CNpZXktn20YOn-3" value="下行链路" style="rounded=1;whiteSpace=wrap;html=1;" parent="1" vertex="1">
          <mxGeometry x="291" y="553" width="120" height="60" as="geometry" />
        </mxCell>
        <mxCell id="vwVq9e7CNpZXktn20YOn-4" value="上级服务" style="whiteSpace=wrap;html=1;aspect=fixed;" parent="1" vertex="1">
          <mxGeometry x="67" y="506" width="80" height="80" as="geometry" />
        </mxCell>
        <mxCell id="vwVq9e7CNpZXktn20YOn-5" value="双向通信" style="endArrow=classic;startArrow=classic;html=1;rounded=0;exitX=1;exitY=0;exitDx=0;exitDy=0;" parent="1" source="vwVq9e7CNpZXktn20YOn-4" target="vwVq9e7CNpZXktn20YOn-2" edge="1">
          <mxGeometry width="50" height="50" relative="1" as="geometry">
            <mxPoint x="357" y="446" as="sourcePoint" />
            <mxPoint x="407" y="396" as="targetPoint" />
          </mxGeometry>
        </mxCell>
        <mxCell id="vwVq9e7CNpZXktn20YOn-6" value="双向通信" style="endArrow=classic;startArrow=classic;html=1;rounded=0;exitX=1;exitY=1;exitDx=0;exitDy=0;entryX=0;entryY=0.5;entryDx=0;entryDy=0;" parent="1" source="vwVq9e7CNpZXktn20YOn-4" target="vwVq9e7CNpZXktn20YOn-3" edge="1">
          <mxGeometry width="50" height="50" relative="1" as="geometry">
            <mxPoint x="357" y="446" as="sourcePoint" />
            <mxPoint x="407" y="396" as="targetPoint" />
          </mxGeometry>
        </mxCell>
        <mxCell id="vwVq9e7CNpZXktn20YOn-12" style="edgeStyle=orthogonalEdgeStyle;rounded=0;orthogonalLoop=1;jettySize=auto;html=1;exitX=0;exitY=0.75;exitDx=0;exitDy=0;entryX=1;entryY=0.5;entryDx=0;entryDy=0;" parent="1" source="vwVq9e7CNpZXktn20YOn-7" target="qdqMr-0LiX04oF3RgG00-3" edge="1">
          <mxGeometry relative="1" as="geometry" />
        </mxCell>
        <mxCell id="vwVq9e7CNpZXktn20YOn-7" value="协议转换&lt;span style=&quot;background-color: initial;&quot;&gt;任务池&lt;/span&gt;&lt;div&gt;&lt;br&gt;&lt;div&gt;负责报文格式转换&amp;nbsp;&amp;nbsp;&lt;/div&gt;&lt;/div&gt;" style="shape=parallelogram;perimeter=parallelogramPerimeter;whiteSpace=wrap;html=1;fixedSize=1;" parent="1" vertex="1">
          <mxGeometry x="679" y="459" width="128" height="60" as="geometry" />
        </mxCell>
        <mxCell id="vwVq9e7CNpZXktn20YOn-10" value="TCP socket连接" style="edgeStyle=orthogonalEdgeStyle;rounded=0;orthogonalLoop=1;jettySize=auto;html=1;exitX=1;exitY=0.5;exitDx=0;exitDy=0;" parent="1" source="vwVq9e7CNpZXktn20YOn-9" target="vwVq9e7CNpZXktn20YOn-1" edge="1">
          <mxGeometry relative="1" as="geometry" />
        </mxCell>
        <mxCell id="vwVq9e7CNpZXktn20YOn-9" value="第三方推送&lt;div&gt;推送json格式数据&lt;/div&gt;" style="whiteSpace=wrap;html=1;aspect=fixed;" parent="1" vertex="1">
          <mxGeometry x="67" y="386" width="80" height="80" as="geometry" />
        </mxCell>
        <mxCell id="qdqMr-0LiX04oF3RgG00-5" style="edgeStyle=orthogonalEdgeStyle;rounded=0;orthogonalLoop=1;jettySize=auto;html=1;exitX=1;exitY=0.5;exitDx=0;exitDy=0;entryX=0.5;entryY=0;entryDx=0;entryDy=0;" edge="1" parent="1" source="qdqMr-0LiX04oF3RgG00-1" target="vwVq9e7CNpZXktn20YOn-7">
          <mxGeometry relative="1" as="geometry" />
        </mxCell>
        <mxCell id="qdqMr-0LiX04oF3RgG00-1" value="ThirdPartyDataQueue&lt;div&gt;内部消息队列&lt;/div&gt;" style="shape=process;whiteSpace=wrap;html=1;backgroundOutline=1;" vertex="1" parent="1">
          <mxGeometry x="478" y="393" width="157" height="60" as="geometry" />
        </mxCell>
        <mxCell id="qdqMr-0LiX04oF3RgG00-4" style="edgeStyle=orthogonalEdgeStyle;rounded=0;orthogonalLoop=1;jettySize=auto;html=1;exitX=0;exitY=0.5;exitDx=0;exitDy=0;entryX=1;entryY=0.5;entryDx=0;entryDy=0;" edge="1" parent="1" source="qdqMr-0LiX04oF3RgG00-3" target="vwVq9e7CNpZXktn20YOn-2">
          <mxGeometry relative="1" as="geometry" />
        </mxCell>
        <mxCell id="qdqMr-0LiX04oF3RgG00-3" value="UpLinkDataQueue&lt;div&gt;内部消息队列&lt;/div&gt;" style="shape=process;whiteSpace=wrap;html=1;backgroundOutline=1;" vertex="1" parent="1">
          <mxGeometry x="478" y="473" width="149" height="60" as="geometry" />
        </mxCell>
      </root>
    </mxGraphModel>
  </diagram>
</mxfile>
